<svg width="139" height="99" viewBox="0 0 139 99" fill="none" xmlns="http://www.w3.org/2000/svg">
<g filter="url(#filter0_d_652_1965)">
<path d="M68.0665 43.5754C71.6082 43.5754 74.9104 42.5517 77.7001 40.7908L69.5278 34.2349C68.7225 34.4091 67.8104 34.4528 66.8397 34.3368C63.4504 33.9328 60.6284 31.7427 60.5391 29.4465C60.4488 27.1503 63.1242 25.6167 66.5143 26.0205C66.9996 26.0781 67.4743 26.1741 67.9289 26.3007C67.7066 25.8831 67.5104 25.4412 67.3487 24.9804C66.2188 21.7591 67.1372 18.8144 69.3976 18.404C71.659 17.9927 74.4086 20.2732 75.5374 23.4943C75.861 24.4171 76.016 25.3164 76.0202 26.1406L84.5256 32.9645C85.5585 30.6879 86.14 28.1635 86.14 25.5C86.14 15.5179 78.0478 7.42468 68.0647 7.42468C58.0825 7.42468 49.9893 15.5179 49.9893 25.5C49.9892 35.482 58.0843 43.5754 68.0665 43.5754Z" fill="white" style="mix-blend-mode:multiply" shape-rendering="crispEdges"/>
<path d="M68.0665 43.5754C71.6082 43.5754 74.9104 42.5517 77.7001 40.7908L69.5278 34.2349C68.7225 34.4091 67.8104 34.4528 66.8397 34.3368C63.4504 33.9328 60.6284 31.7427 60.5391 29.4465C60.4488 27.1503 63.1242 25.6167 66.5143 26.0205C66.9996 26.0781 67.4743 26.1741 67.9289 26.3007C67.7066 25.8831 67.5104 25.4412 67.3487 24.9804C66.2188 21.7591 67.1372 18.8144 69.3976 18.404C71.659 17.9927 74.4086 20.2732 75.5374 23.4943C75.861 24.4171 76.016 25.3164 76.0202 26.1406L84.5256 32.9645C85.5585 30.6879 86.14 28.1635 86.14 25.5C86.14 15.5179 78.0478 7.42468 68.0647 7.42468C58.0825 7.42468 49.9893 15.5179 49.9893 25.5C49.9892 35.482 58.0843 43.5754 68.0665 43.5754Z" stroke="#061407" shape-rendering="crispEdges"/>
</g>
<g filter="url(#filter1_d_652_1965)">
<path d="M68.0647 50.5C81.849 50.5 93.0639 39.285 93.0639 25.5C93.0639 11.7155 81.849 0.5 68.0647 0.5C54.2798 0.5 43.0654 11.7145 43.0654 25.5C43.0654 39.2844 54.2798 50.5 68.0647 50.5ZM68.0647 4.78613C79.4859 4.78613 88.7771 14.0783 88.7771 25.5C88.7771 36.9213 79.4854 46.2137 68.0647 46.2137C56.6428 46.2137 47.3508 36.9214 47.3508 25.5C47.3518 14.0783 56.6427 4.78613 68.0647 4.78613Z" fill="white" style="mix-blend-mode:multiply" shape-rendering="crispEdges"/>
<path d="M68.0647 50.5C81.849 50.5 93.0639 39.285 93.0639 25.5C93.0639 11.7155 81.849 0.5 68.0647 0.5C54.2798 0.5 43.0654 11.7145 43.0654 25.5C43.0654 39.2844 54.2798 50.5 68.0647 50.5ZM68.0647 4.78613C79.4859 4.78613 88.7771 14.0783 88.7771 25.5C88.7771 36.9213 79.4854 46.2137 68.0647 46.2137C56.6428 46.2137 47.3508 36.9214 47.3508 25.5C47.3518 14.0783 56.6427 4.78613 68.0647 4.78613Z" stroke="#061407" shape-rendering="crispEdges"/>
</g>
<g filter="url(#filter2_d_652_1965)">
<mask id="path-3-outside-1_652_1965" maskUnits="userSpaceOnUse" x="-0.744141" y="56.5" width="138" height="41" fill="black">
<rect fill="white" x="-0.744141" y="56.5" width="138" height="41"/>
<path d="M4.25586 62.5039C5.07617 62.5977 5.76758 62.668 6.33008 62.7148C6.89258 62.7383 7.33789 62.7617 7.66602 62.7852C8.06445 62.8086 8.38086 62.8203 8.61523 62.8203C9.01367 62.8203 9.4707 62.8086 9.98633 62.7852C10.4316 62.7617 10.9473 62.7266 11.5332 62.6797C12.1426 62.6094 12.7988 62.5039 13.502 62.3633C13.1738 62.7148 12.9043 63.0547 12.6934 63.3828C12.4824 63.6875 12.3184 63.9688 12.2012 64.2266C12.0605 64.5078 11.9434 64.7656 11.8496 65C11.7559 65.3047 11.6504 65.7734 11.5332 66.4062C11.416 66.9453 11.2871 67.707 11.1465 68.6914C11.0293 69.6758 10.877 70.9648 10.6895 72.5586C11.4863 72.582 12.1777 72.5938 12.7637 72.5938C13.3496 72.5703 13.8418 72.5586 14.2402 72.5586H15.4004C15.7285 72.5352 16.1035 72.5117 16.5254 72.4883C17.2285 72.4648 18.2949 72.3945 19.7246 72.2773C19.8418 71.1992 19.9004 70.2734 19.9004 69.5C19.9238 68.7031 19.9121 68.0352 19.8652 67.4961C19.8184 66.8867 19.748 66.3711 19.6543 65.9492C19.584 65.7148 19.4785 65.4336 19.3379 65.1055C19.2207 64.8242 19.0566 64.4844 18.8457 64.0859C18.6582 63.6641 18.4004 63.1602 18.0723 62.5742C18.6816 62.668 19.2207 62.7383 19.6895 62.7852C20.1816 62.8086 20.5918 62.832 20.9199 62.8555C21.2949 62.8789 21.6113 62.8906 21.8691 62.8906C22.127 62.8906 22.4668 62.8789 22.8887 62.8555C23.2402 62.832 23.6738 62.8203 24.1895 62.8203C24.7051 62.7969 25.3379 62.7617 26.0879 62.7148C25.9004 63.043 25.7363 63.3828 25.5957 63.7344C25.4551 64.0859 25.3379 64.4023 25.2441 64.6836C25.1504 65.0117 25.0566 65.3398 24.9629 65.668C24.8457 66.1602 24.7402 66.875 24.6465 67.8125C24.5762 68.75 24.5059 69.793 24.4355 70.9414C24.3887 72.0898 24.3418 73.2852 24.2949 74.5273C24.2715 75.7695 24.248 76.9414 24.2246 78.043C24.2246 79.1445 24.2363 80.1289 24.2598 80.9961C24.2832 81.8398 24.3301 82.4375 24.4004 82.7891C24.4707 83.2109 24.5879 83.6445 24.752 84.0898C24.8926 84.4883 25.0801 84.9219 25.3145 85.3906C25.5488 85.8359 25.8535 86.2578 26.2285 86.6562L17.7559 87.2891C18.1074 86.9609 18.3887 86.6445 18.5996 86.3398C18.8105 86.0117 18.9746 85.7305 19.0918 85.4961C19.209 85.2383 19.291 84.9922 19.3379 84.7578C19.3613 84.4766 19.3965 83.9844 19.4434 83.2812C19.4902 82.6953 19.5371 81.8633 19.584 80.7852C19.6309 79.707 19.6777 78.2773 19.7246 76.4961C19.3965 76.4961 18.998 76.5078 18.5293 76.5312C18.084 76.5312 17.6621 76.543 17.2637 76.5664C16.7949 76.5898 16.3027 76.6016 15.7871 76.6016C15.2715 76.625 14.7324 76.6484 14.1699 76.6719C13.7012 76.7188 13.1738 76.7656 12.5879 76.8125C12.0254 76.8359 11.4629 76.8711 10.9004 76.918C10.8535 77.9023 10.8535 78.7695 10.9004 79.5195C10.9473 80.2461 11.0176 80.8672 11.1113 81.3828C11.2051 81.9922 11.3223 82.5195 11.4629 82.9648C11.6035 83.3867 11.7559 83.8086 11.9199 84.2305C12.0605 84.6055 12.2246 85.0039 12.4121 85.4258C12.623 85.8477 12.834 86.2227 13.0449 86.5508C12.5996 86.5039 12.1895 86.4688 11.8145 86.4453C11.4395 86.3984 11.1113 86.3516 10.8301 86.3047C10.502 86.2812 10.1855 86.2578 9.88086 86.2344C9.57617 86.2344 9.21289 86.2227 8.79102 86.1992C8.41602 86.1758 7.94727 86.1641 7.38477 86.1641C6.82227 86.1406 6.16602 86.1289 5.41602 86.1289C5.86133 85.6836 6.21289 85.25 6.4707 84.8281C6.75195 84.3828 6.95117 83.9844 7.06836 83.6328C7.20898 83.2109 7.30273 82.8242 7.34961 82.4727C7.37305 82.168 7.38477 81.5938 7.38477 80.75C7.4082 79.9062 7.4082 78.9453 7.38477 77.8672C7.38477 76.7656 7.37305 75.6172 7.34961 74.4219C7.32617 73.2031 7.29102 72.0664 7.24414 71.0117C7.2207 69.957 7.18555 69.0547 7.13867 68.3047C7.11523 67.5312 7.0918 67.0508 7.06836 66.8633C6.95117 66.4414 6.77539 65.9844 6.54102 65.4922C6.33008 65.0938 6.04883 64.6367 5.69727 64.1211C5.3457 63.582 4.86523 63.043 4.25586 62.5039Z"/>
<path d="M36.248 81.8047C36.9043 81.8047 37.5137 81.7344 38.0762 81.5938C38.5449 81.4766 38.9902 81.2891 39.4121 81.0312C39.8574 80.75 40.1504 80.3398 40.291 79.8008C40.7598 79.8945 41.1582 79.9766 41.4863 80.0469C41.8145 80.0938 42.0957 80.1406 42.3301 80.1875C42.5879 80.2578 42.8105 80.3047 42.998 80.3281C43.1855 80.375 43.4082 80.4219 43.666 80.4688C43.9004 80.5156 44.1816 80.5742 44.5098 80.6445C44.8613 80.6914 45.2715 80.7617 45.7402 80.8555C45.3887 80.8086 45.0254 80.8438 44.6504 80.9609C44.2988 81.0781 43.959 81.207 43.6309 81.3477C43.2559 81.5117 42.9043 81.7109 42.5762 81.9453C42.3652 82.0859 42.1191 82.2969 41.8379 82.5781C41.5801 82.8594 41.2051 83.1289 40.7129 83.3867C40.2207 83.6445 39.5645 83.8672 38.7441 84.0547C37.9473 84.2188 36.916 84.2773 35.6504 84.2305C34.127 84.1836 32.8496 83.9141 31.8184 83.4219C30.7871 82.9062 29.9551 82.2852 29.3223 81.5586C28.6895 80.8086 28.2324 80 27.9512 79.1328C27.6699 78.2656 27.5176 77.457 27.4941 76.707C27.4707 75.957 27.6934 75.1719 28.1621 74.3516C28.6309 73.5312 29.2871 72.7812 30.1309 72.1016C30.998 71.4219 32.041 70.8711 33.2598 70.4492C34.4785 70.0039 35.8145 69.7812 37.2676 69.7812C38.1113 69.7812 38.8848 69.8867 39.5879 70.0977C40.3145 70.2852 40.9707 70.543 41.5566 70.8711C42.166 71.1992 42.6934 71.5742 43.1387 71.9961C43.584 72.3945 43.959 72.8047 44.2637 73.2266C44.5684 73.6719 44.8262 74.1406 45.0371 74.6328C45.2246 75.0547 45.377 75.5352 45.4941 76.0742C45.6113 76.6133 45.6465 77.1641 45.5996 77.7266C43.8184 77.7734 42.377 77.8086 41.2754 77.832C40.1973 77.8555 39.3535 77.8672 38.7441 77.8672H35.9668C35.5449 77.8672 34.9941 77.8789 34.3145 77.9023C33.6348 77.9258 32.8027 77.9609 31.8184 78.0078C31.9355 78.9453 32.2285 79.6719 32.6973 80.1875C33.1895 80.6797 33.7051 81.0547 34.2441 81.3125C34.8535 81.5938 35.5215 81.7578 36.248 81.8047ZM33.084 75.4766C33.834 75.5234 34.4551 75.5586 34.9473 75.582C35.4629 75.6055 35.8848 75.6289 36.2129 75.6523C36.5645 75.6758 36.8457 75.6875 37.0566 75.6875H37.9355C38.5215 75.6875 39.6113 75.6523 41.2051 75.582C41.1348 74.5508 40.9121 73.7656 40.5371 73.2266C40.1855 72.6875 39.8105 72.2891 39.4121 72.0312C38.9434 71.75 38.4277 71.5859 37.8652 71.5391C36.3418 71.5625 35.2051 71.8789 34.4551 72.4883C33.7285 73.0977 33.2715 74.0938 33.084 75.4766Z"/>
<path d="M47.8145 88.4492C48.0488 88.0977 48.2363 87.7695 48.377 87.4648C48.5176 87.1602 48.6348 86.9023 48.7285 86.6914C48.8223 86.4336 48.8926 86.1992 48.9395 85.9883C48.9629 85.8477 48.9746 85.4375 48.9746 84.7578C48.9746 84.0781 48.9512 83.2227 48.9043 82.1914C48.8809 81.1602 48.8457 80 48.7988 78.7109C48.7754 77.4219 48.7285 76.1094 48.6582 74.7734C48.6113 73.4375 48.5527 72.1367 48.4824 70.8711C48.4355 69.6055 48.3887 68.4688 48.3418 67.4609C48.2949 66.4297 48.248 65.5859 48.2012 64.9297C48.1543 64.2734 48.1191 63.8984 48.0957 63.8047C48.0488 63.6641 47.9668 63.5234 47.8496 63.3828C47.6152 63.1016 47.2168 62.832 46.6543 62.5742C47.8496 62.2695 48.7637 62.0234 49.3965 61.8359C49.7715 61.7422 50.0996 61.6484 50.3809 61.5547C50.6387 61.4609 50.8965 61.3672 51.1543 61.2734C51.3652 61.1797 51.5996 61.0742 51.8574 60.957C52.1152 60.8164 52.3496 60.6641 52.5605 60.5C52.4434 61.1797 52.3496 61.8359 52.2793 62.4688C52.209 63.1016 52.1504 63.6875 52.1035 64.2266C52.0566 64.8359 52.0332 65.4219 52.0332 65.9844C51.916 67.1328 51.8457 68.3867 51.8223 69.7461C51.8223 71.082 51.834 72.4414 51.8574 73.8242C51.8809 75.207 51.9277 76.5547 51.998 77.8672C52.0684 79.1797 52.1387 80.375 52.209 81.4531C52.3027 82.5078 52.3848 83.4102 52.4551 84.1602C52.5488 84.8867 52.6191 85.3555 52.666 85.5664C52.7598 85.918 52.8535 86.2578 52.9473 86.5859C53.041 86.8672 53.1465 87.1602 53.2637 87.4648C53.3809 87.793 53.5215 88.0508 53.6855 88.2383H50.2754C49.9707 88.2383 49.6777 88.25 49.3965 88.2734C49.1387 88.2969 48.8691 88.3203 48.5879 88.3438C48.3066 88.3672 48.0488 88.4023 47.8145 88.4492Z"/>
<path d="M53.8965 71.082C54.6465 70.9648 55.2559 70.8711 55.7246 70.8008C56.2168 70.707 56.6152 70.6367 56.9199 70.5898C57.2715 70.5195 57.541 70.4609 57.7285 70.4141C57.916 70.3672 58.1855 70.2969 58.5371 70.2031C58.8418 70.1094 59.2402 70.0039 59.7324 69.8867C60.2246 69.7461 60.8457 69.5586 61.5957 69.3242C61.4082 69.5586 61.2559 69.7695 61.1387 69.957C61.0449 70.1211 60.9512 70.2617 60.8574 70.3789C60.7637 70.5195 60.6816 70.6484 60.6113 70.7656C60.541 70.8828 60.4707 71.0586 60.4004 71.293C60.3535 71.4805 60.2949 71.75 60.2246 72.1016C60.1543 72.4297 60.0957 72.8633 60.0488 73.4023C61.3145 72.6055 62.4746 72.0078 63.5293 71.6094C64.6074 71.2109 65.5449 70.9297 66.3418 70.7656C67.2793 70.5781 68.123 70.5078 68.873 70.5547C69.8105 70.625 70.6777 70.8359 71.4746 71.1875C72.2949 71.5156 73.0332 71.9141 73.6895 72.3828C74.3457 72.8516 74.9199 73.3672 75.4121 73.9297C75.9043 74.4922 76.291 75.0547 76.5723 75.6172C76.7598 75.9922 76.877 76.5312 76.9238 77.2344C76.9941 77.9375 76.9238 78.6875 76.7129 79.4844C76.502 80.2812 76.127 81.0664 75.5879 81.8398C75.0723 82.5898 74.334 83.1875 73.373 83.6328C71.709 84.3828 70.0566 84.8047 68.416 84.8984C67.7129 84.9453 66.9863 84.9219 66.2363 84.8281C65.5098 84.7344 64.7715 84.5352 64.0215 84.2305C63.2949 83.9258 62.5918 83.4922 61.9121 82.9297C61.2324 82.3438 60.6113 81.5938 60.0488 80.6797C59.8613 81.875 59.7207 82.918 59.627 83.8086C59.5566 84.6758 59.5098 85.4023 59.4863 85.9883C59.4629 86.668 59.4629 87.2422 59.4863 87.7109C59.5332 88.1797 59.627 88.6836 59.7676 89.2227C59.8848 89.6914 60.0488 90.2305 60.2598 90.8398C60.4941 91.4727 60.7871 92.1289 61.1387 92.8086C60.998 92.7617 60.7988 92.7266 60.541 92.7031C60.3066 92.7031 60.0605 92.7266 59.8027 92.7734C59.5215 92.8203 59.2051 92.8672 58.8535 92.9141C58.5254 92.9844 58.1621 93.0664 57.7637 93.1602C57.4355 93.2305 57.0488 93.3125 56.6035 93.4062C56.1816 93.5234 55.748 93.6523 55.3027 93.793C55.5605 93.4883 55.7598 93.1367 55.9004 92.7383C56.0645 92.3633 56.1934 92.0117 56.2871 91.6836C56.3809 91.2852 56.4629 90.8867 56.5332 90.4883C56.5566 90.1367 56.5918 89.4688 56.6387 88.4844C56.709 87.5234 56.7676 86.4102 56.8145 85.1445C56.8613 83.8555 56.8965 82.5078 56.9199 81.1016C56.9668 79.6953 56.9902 78.3945 56.9902 77.1992C57.0137 75.9805 57.0137 74.9492 56.9902 74.1055C56.9668 73.2617 56.9199 72.7695 56.8496 72.6289C56.7559 72.4648 56.5801 72.2891 56.3223 72.1016C56.1113 71.9375 55.8066 71.7734 55.4082 71.6094C55.0332 71.4453 54.5293 71.2695 53.8965 71.082ZM62.2637 77.4805C62.0996 78.0195 62.0645 78.5469 62.1582 79.0625C62.252 79.5781 62.4863 80.0586 62.8613 80.5039C63.2598 80.9492 63.8105 81.3477 64.5137 81.6992C65.2402 82.0273 66.1426 82.2734 67.2207 82.4375C68.2988 82.6016 69.1191 82.5781 69.6816 82.3672C70.2441 82.1562 70.6543 81.8281 70.9121 81.3828C71.1934 80.9141 71.3809 80.375 71.4746 79.7656C71.5684 79.1328 71.6855 78.4766 71.8262 77.7969C71.9668 77.1406 71.9434 76.4727 71.7559 75.793C71.5684 75.0898 71.2988 74.457 70.9473 73.8945C70.6191 73.332 70.2441 72.875 69.8223 72.5234C69.4238 72.1484 69.0723 71.9609 68.7676 71.9609C68.041 71.9609 67.3262 72.1484 66.623 72.5234C65.9199 72.8984 65.2754 73.3672 64.6895 73.9297C64.1035 74.4922 63.5879 75.1016 63.1426 75.7578C62.7207 76.3906 62.4277 76.9648 62.2637 77.4805Z"/>
<path d="M76.5723 62.293C77.4629 62.5039 78.2598 62.668 78.9629 62.7852C79.6895 62.8789 80.2988 62.9492 80.791 62.9961C81.377 63.0664 81.8926 63.0898 82.3379 63.0664C82.9004 63.043 83.6035 62.9609 84.4473 62.8203C85.291 62.6797 86.1816 62.5391 87.1191 62.3984C88.0566 62.2578 88.9824 62.1406 89.8965 62.0469C90.8105 61.9531 91.6074 61.9414 92.2871 62.0117C92.9668 62.082 93.6816 62.2461 94.4316 62.5039C95.1816 62.7383 95.8848 63.0664 96.541 63.4883C97.1973 63.8867 97.7598 64.3789 98.2285 64.9648C98.7207 65.5508 99.0254 66.2305 99.1426 67.0039C99.2598 67.7539 99.1895 68.5625 98.9316 69.4297C98.6738 70.2734 98.2637 71.1055 97.7012 71.9258C97.1387 72.7227 96.4355 73.4609 95.5918 74.1406C94.748 74.8203 93.8105 75.3711 92.7793 75.793C91.959 76.0977 91.0684 76.332 90.1074 76.4961C89.2871 76.6367 88.3262 76.7305 87.2246 76.7773C86.1465 76.8008 84.998 76.6836 83.7793 76.4258C83.6152 77.1055 83.5215 77.7383 83.498 78.3242C83.498 78.8867 83.5215 79.3906 83.5684 79.8359C83.6387 80.3516 83.7324 80.8203 83.8496 81.2422C83.9902 81.6641 84.166 82.1562 84.377 82.7188C84.5645 83.1875 84.7754 83.7617 85.0098 84.4414C85.2676 85.0977 85.5723 85.8359 85.9238 86.6562C85.502 86.6562 85.0918 86.668 84.6934 86.6914C84.2949 86.6914 83.9316 86.7031 83.6035 86.7266C83.2285 86.75 82.877 86.7734 82.5488 86.7969C82.1738 86.8203 81.752 86.8672 81.2832 86.9375C80.8848 86.9844 80.3809 87.0547 79.7715 87.1484C79.1855 87.2422 78.5176 87.3594 77.7676 87.5C78.2598 86.7969 78.6465 86.1523 78.9277 85.5664C79.2324 84.957 79.4551 84.4297 79.5957 83.9844C79.7598 83.4688 79.8652 83 79.9121 82.5781C79.9355 82.2266 79.9355 81.6055 79.9121 80.7148C79.9121 79.8242 79.9004 78.793 79.877 77.6211C79.8535 76.4492 79.8184 75.2188 79.7715 73.9297C79.7246 72.6406 79.666 71.4336 79.5957 70.3086C79.5254 69.1602 79.4434 68.1758 79.3496 67.3555C79.2793 66.5352 79.209 65.9961 79.1387 65.7383C79.0449 65.4336 78.8809 65.1055 78.6465 64.7539C78.459 64.4492 78.1895 64.0977 77.8379 63.6992C77.5098 63.2773 77.0879 62.8086 76.5723 62.293ZM83.8496 69.2188C83.8262 69.4531 83.8145 69.6992 83.8145 69.957C83.8145 70.4492 83.8496 71.082 83.9199 71.8555C84.084 72.2539 84.2832 72.582 84.5176 72.8398C84.7754 73.0977 85.0449 73.2969 85.3262 73.4375C85.6309 73.5781 85.9355 73.6719 86.2402 73.7188C86.5449 73.7656 86.8496 73.7891 87.1543 73.7891C87.8574 73.7656 88.5957 73.6016 89.3691 73.2969C90.4004 72.8516 91.127 72.2188 91.5488 71.3984C91.9707 70.5781 92.1934 69.7344 92.2168 68.8672C92.2402 68 92.0879 67.2031 91.7598 66.4766C91.4551 65.75 91.0801 65.2578 90.6348 65C90.2598 64.8359 89.7793 64.7656 89.1934 64.7891C88.6777 64.8125 88.0332 64.9414 87.2598 65.1758C86.4863 65.4102 85.5371 65.832 84.4121 66.4414C84.2949 66.8633 84.2012 67.2383 84.1309 67.5664C84.0605 67.8945 84.002 68.1875 83.9551 68.4453C83.9082 68.7266 83.873 68.9844 83.8496 69.2188Z"/>
<path d="M107.404 81.8047C108.061 81.8047 108.67 81.7344 109.232 81.5938C109.701 81.4766 110.146 81.2891 110.568 81.0312C111.014 80.75 111.307 80.3398 111.447 79.8008C111.916 79.8945 112.314 79.9766 112.643 80.0469C112.971 80.0938 113.252 80.1406 113.486 80.1875C113.744 80.2578 113.967 80.3047 114.154 80.3281C114.342 80.375 114.564 80.4219 114.822 80.4688C115.057 80.5156 115.338 80.5742 115.666 80.6445C116.018 80.6914 116.428 80.7617 116.896 80.8555C116.545 80.8086 116.182 80.8438 115.807 80.9609C115.455 81.0781 115.115 81.207 114.787 81.3477C114.412 81.5117 114.061 81.7109 113.732 81.9453C113.521 82.0859 113.275 82.2969 112.994 82.5781C112.736 82.8594 112.361 83.1289 111.869 83.3867C111.377 83.6445 110.721 83.8672 109.9 84.0547C109.104 84.2188 108.072 84.2773 106.807 84.2305C105.283 84.1836 104.006 83.9141 102.975 83.4219C101.943 82.9062 101.111 82.2852 100.479 81.5586C99.8457 80.8086 99.3887 80 99.1074 79.1328C98.8262 78.2656 98.6738 77.457 98.6504 76.707C98.627 75.957 98.8496 75.1719 99.3184 74.3516C99.7871 73.5312 100.443 72.7812 101.287 72.1016C102.154 71.4219 103.197 70.8711 104.416 70.4492C105.635 70.0039 106.971 69.7812 108.424 69.7812C109.268 69.7812 110.041 69.8867 110.744 70.0977C111.471 70.2852 112.127 70.543 112.713 70.8711C113.322 71.1992 113.85 71.5742 114.295 71.9961C114.74 72.3945 115.115 72.8047 115.42 73.2266C115.725 73.6719 115.982 74.1406 116.193 74.6328C116.381 75.0547 116.533 75.5352 116.65 76.0742C116.768 76.6133 116.803 77.1641 116.756 77.7266C114.975 77.7734 113.533 77.8086 112.432 77.832C111.354 77.8555 110.51 77.8672 109.9 77.8672H107.123C106.701 77.8672 106.15 77.8789 105.471 77.9023C104.791 77.9258 103.959 77.9609 102.975 78.0078C103.092 78.9453 103.385 79.6719 103.854 80.1875C104.346 80.6797 104.861 81.0547 105.4 81.3125C106.01 81.5938 106.678 81.7578 107.404 81.8047ZM104.24 75.4766C104.99 75.5234 105.611 75.5586 106.104 75.582C106.619 75.6055 107.041 75.6289 107.369 75.6523C107.721 75.6758 108.002 75.6875 108.213 75.6875H109.092C109.678 75.6875 110.768 75.6523 112.361 75.582C112.291 74.5508 112.068 73.7656 111.693 73.2266C111.342 72.6875 110.967 72.2891 110.568 72.0312C110.1 71.75 109.584 71.5859 109.021 71.5391C107.498 71.5625 106.361 71.8789 105.611 72.4883C104.885 73.0977 104.428 74.0938 104.24 75.4766Z"/>
<path d="M117.74 65.3164C118.443 65.3867 119.029 65.4453 119.498 65.4922C119.99 65.5391 120.389 65.5742 120.693 65.5977C121.045 65.6211 121.326 65.6328 121.537 65.6328C121.748 65.6562 122.029 65.6562 122.381 65.6328C122.686 65.6094 123.084 65.5859 123.576 65.5625C124.068 65.5156 124.689 65.4453 125.439 65.3516C125.275 65.5859 125.146 65.7969 125.053 65.9844C124.959 66.1484 124.877 66.3008 124.807 66.4414L124.596 66.8633C124.549 67.0039 124.502 67.1445 124.455 67.2852C124.408 67.4023 124.361 67.543 124.314 67.707C124.291 67.8711 124.268 68.0469 124.244 68.2344H129.658L129.166 71.082L124.209 70.8008C124.092 71.9961 124.01 72.9219 123.963 73.5781C123.916 74.2344 123.869 74.7148 123.822 75.0195L123.752 75.6523C123.682 76.543 123.611 77.5156 123.541 78.5703C123.471 79.6016 123.447 80.5625 123.471 81.4531C123.494 82.3438 123.576 83.0938 123.717 83.7031C123.857 84.2891 124.104 84.582 124.455 84.582C124.807 84.582 125.135 84.4883 125.439 84.3008C125.744 84.1133 126.002 83.8906 126.213 83.6328C126.447 83.375 126.623 83.1172 126.74 82.8594C126.857 82.5781 126.916 82.3672 126.916 82.2266C126.916 82.0859 126.881 81.9219 126.811 81.7344C126.693 81.3828 126.482 80.9375 126.178 80.3984C126.857 80.5625 127.455 80.7266 127.971 80.8906C128.229 80.9844 128.463 81.0781 128.674 81.1719C128.908 81.2656 129.178 81.3711 129.482 81.4883C129.74 81.6055 130.068 81.7461 130.467 81.9102C130.865 82.0742 131.334 82.2734 131.873 82.5078C131.357 82.6016 130.982 82.7539 130.748 82.9648C130.607 83.0586 130.502 83.1641 130.432 83.2812C130.268 83.5391 130.08 83.8906 129.869 84.3359C129.658 84.7578 129.342 85.1797 128.92 85.6016C128.498 86.0234 127.924 86.3984 127.197 86.7266C126.494 87.0547 125.545 87.2422 124.35 87.2891C123.107 87.3359 122.158 87.125 121.502 86.6562C120.869 86.1875 120.4 85.6484 120.096 85.0391C119.814 84.4062 119.65 83.7852 119.604 83.1758C119.557 82.5664 119.521 82.1562 119.498 81.9453C119.475 81.7344 119.475 81.207 119.498 80.3633C119.521 79.5195 119.557 78.5938 119.604 77.5859C119.65 76.5547 119.697 75.5703 119.744 74.6328C119.791 73.6719 119.814 72.9688 119.814 72.5234C119.814 72.2891 119.826 72.043 119.85 71.7852C119.85 71.5742 119.85 71.3516 119.85 71.1172C119.873 70.8594 119.885 70.6133 119.885 70.3789L114.787 70.3438L114.576 68.3398L119.709 68.4805C119.662 68.2227 119.604 67.9883 119.533 67.7773C119.486 67.543 119.439 67.3555 119.393 67.2148C119.322 67.0508 119.252 66.9102 119.182 66.793C119.088 66.6758 118.982 66.5469 118.865 66.4062C118.748 66.2891 118.596 66.1367 118.408 65.9492C118.221 65.7617 117.998 65.5508 117.74 65.3164Z"/>
</mask>
<path d="M4.25586 62.5039C5.07617 62.5977 5.76758 62.668 6.33008 62.7148C6.89258 62.7383 7.33789 62.7617 7.66602 62.7852C8.06445 62.8086 8.38086 62.8203 8.61523 62.8203C9.01367 62.8203 9.4707 62.8086 9.98633 62.7852C10.4316 62.7617 10.9473 62.7266 11.5332 62.6797C12.1426 62.6094 12.7988 62.5039 13.502 62.3633C13.1738 62.7148 12.9043 63.0547 12.6934 63.3828C12.4824 63.6875 12.3184 63.9688 12.2012 64.2266C12.0605 64.5078 11.9434 64.7656 11.8496 65C11.7559 65.3047 11.6504 65.7734 11.5332 66.4062C11.416 66.9453 11.2871 67.707 11.1465 68.6914C11.0293 69.6758 10.877 70.9648 10.6895 72.5586C11.4863 72.582 12.1777 72.5938 12.7637 72.5938C13.3496 72.5703 13.8418 72.5586 14.2402 72.5586H15.4004C15.7285 72.5352 16.1035 72.5117 16.5254 72.4883C17.2285 72.4648 18.2949 72.3945 19.7246 72.2773C19.8418 71.1992 19.9004 70.2734 19.9004 69.5C19.9238 68.7031 19.9121 68.0352 19.8652 67.4961C19.8184 66.8867 19.748 66.3711 19.6543 65.9492C19.584 65.7148 19.4785 65.4336 19.3379 65.1055C19.2207 64.8242 19.0566 64.4844 18.8457 64.0859C18.6582 63.6641 18.4004 63.1602 18.0723 62.5742C18.6816 62.668 19.2207 62.7383 19.6895 62.7852C20.1816 62.8086 20.5918 62.832 20.9199 62.8555C21.2949 62.8789 21.6113 62.8906 21.8691 62.8906C22.127 62.8906 22.4668 62.8789 22.8887 62.8555C23.2402 62.832 23.6738 62.8203 24.1895 62.8203C24.7051 62.7969 25.3379 62.7617 26.0879 62.7148C25.9004 63.043 25.7363 63.3828 25.5957 63.7344C25.4551 64.0859 25.3379 64.4023 25.2441 64.6836C25.1504 65.0117 25.0566 65.3398 24.9629 65.668C24.8457 66.1602 24.7402 66.875 24.6465 67.8125C24.5762 68.75 24.5059 69.793 24.4355 70.9414C24.3887 72.0898 24.3418 73.2852 24.2949 74.5273C24.2715 75.7695 24.248 76.9414 24.2246 78.043C24.2246 79.1445 24.2363 80.1289 24.2598 80.9961C24.2832 81.8398 24.3301 82.4375 24.4004 82.7891C24.4707 83.2109 24.5879 83.6445 24.752 84.0898C24.8926 84.4883 25.0801 84.9219 25.3145 85.3906C25.5488 85.8359 25.8535 86.2578 26.2285 86.6562L17.7559 87.2891C18.1074 86.9609 18.3887 86.6445 18.5996 86.3398C18.8105 86.0117 18.9746 85.7305 19.0918 85.4961C19.209 85.2383 19.291 84.9922 19.3379 84.7578C19.3613 84.4766 19.3965 83.9844 19.4434 83.2812C19.4902 82.6953 19.5371 81.8633 19.584 80.7852C19.6309 79.707 19.6777 78.2773 19.7246 76.4961C19.3965 76.4961 18.998 76.5078 18.5293 76.5312C18.084 76.5312 17.6621 76.543 17.2637 76.5664C16.7949 76.5898 16.3027 76.6016 15.7871 76.6016C15.2715 76.625 14.7324 76.6484 14.1699 76.6719C13.7012 76.7188 13.1738 76.7656 12.5879 76.8125C12.0254 76.8359 11.4629 76.8711 10.9004 76.918C10.8535 77.9023 10.8535 78.7695 10.9004 79.5195C10.9473 80.2461 11.0176 80.8672 11.1113 81.3828C11.2051 81.9922 11.3223 82.5195 11.4629 82.9648C11.6035 83.3867 11.7559 83.8086 11.9199 84.2305C12.0605 84.6055 12.2246 85.0039 12.4121 85.4258C12.623 85.8477 12.834 86.2227 13.0449 86.5508C12.5996 86.5039 12.1895 86.4688 11.8145 86.4453C11.4395 86.3984 11.1113 86.3516 10.8301 86.3047C10.502 86.2812 10.1855 86.2578 9.88086 86.2344C9.57617 86.2344 9.21289 86.2227 8.79102 86.1992C8.41602 86.1758 7.94727 86.1641 7.38477 86.1641C6.82227 86.1406 6.16602 86.1289 5.41602 86.1289C5.86133 85.6836 6.21289 85.25 6.4707 84.8281C6.75195 84.3828 6.95117 83.9844 7.06836 83.6328C7.20898 83.2109 7.30273 82.8242 7.34961 82.4727C7.37305 82.168 7.38477 81.5938 7.38477 80.75C7.4082 79.9062 7.4082 78.9453 7.38477 77.8672C7.38477 76.7656 7.37305 75.6172 7.34961 74.4219C7.32617 73.2031 7.29102 72.0664 7.24414 71.0117C7.2207 69.957 7.18555 69.0547 7.13867 68.3047C7.11523 67.5312 7.0918 67.0508 7.06836 66.8633C6.95117 66.4414 6.77539 65.9844 6.54102 65.4922C6.33008 65.0938 6.04883 64.6367 5.69727 64.1211C5.3457 63.582 4.86523 63.043 4.25586 62.5039Z" fill="#39C442"/>
<path d="M36.248 81.8047C36.9043 81.8047 37.5137 81.7344 38.0762 81.5938C38.5449 81.4766 38.9902 81.2891 39.4121 81.0312C39.8574 80.75 40.1504 80.3398 40.291 79.8008C40.7598 79.8945 41.1582 79.9766 41.4863 80.0469C41.8145 80.0938 42.0957 80.1406 42.3301 80.1875C42.5879 80.2578 42.8105 80.3047 42.998 80.3281C43.1855 80.375 43.4082 80.4219 43.666 80.4688C43.9004 80.5156 44.1816 80.5742 44.5098 80.6445C44.8613 80.6914 45.2715 80.7617 45.7402 80.8555C45.3887 80.8086 45.0254 80.8438 44.6504 80.9609C44.2988 81.0781 43.959 81.207 43.6309 81.3477C43.2559 81.5117 42.9043 81.7109 42.5762 81.9453C42.3652 82.0859 42.1191 82.2969 41.8379 82.5781C41.5801 82.8594 41.2051 83.1289 40.7129 83.3867C40.2207 83.6445 39.5645 83.8672 38.7441 84.0547C37.9473 84.2188 36.916 84.2773 35.6504 84.2305C34.127 84.1836 32.8496 83.9141 31.8184 83.4219C30.7871 82.9062 29.9551 82.2852 29.3223 81.5586C28.6895 80.8086 28.2324 80 27.9512 79.1328C27.6699 78.2656 27.5176 77.457 27.4941 76.707C27.4707 75.957 27.6934 75.1719 28.1621 74.3516C28.6309 73.5312 29.2871 72.7812 30.1309 72.1016C30.998 71.4219 32.041 70.8711 33.2598 70.4492C34.4785 70.0039 35.8145 69.7812 37.2676 69.7812C38.1113 69.7812 38.8848 69.8867 39.5879 70.0977C40.3145 70.2852 40.9707 70.543 41.5566 70.8711C42.166 71.1992 42.6934 71.5742 43.1387 71.9961C43.584 72.3945 43.959 72.8047 44.2637 73.2266C44.5684 73.6719 44.8262 74.1406 45.0371 74.6328C45.2246 75.0547 45.377 75.5352 45.4941 76.0742C45.6113 76.6133 45.6465 77.1641 45.5996 77.7266C43.8184 77.7734 42.377 77.8086 41.2754 77.832C40.1973 77.8555 39.3535 77.8672 38.7441 77.8672H35.9668C35.5449 77.8672 34.9941 77.8789 34.3145 77.9023C33.6348 77.9258 32.8027 77.9609 31.8184 78.0078C31.9355 78.9453 32.2285 79.6719 32.6973 80.1875C33.1895 80.6797 33.7051 81.0547 34.2441 81.3125C34.8535 81.5938 35.5215 81.7578 36.248 81.8047ZM33.084 75.4766C33.834 75.5234 34.4551 75.5586 34.9473 75.582C35.4629 75.6055 35.8848 75.6289 36.2129 75.6523C36.5645 75.6758 36.8457 75.6875 37.0566 75.6875H37.9355C38.5215 75.6875 39.6113 75.6523 41.2051 75.582C41.1348 74.5508 40.9121 73.7656 40.5371 73.2266C40.1855 72.6875 39.8105 72.2891 39.4121 72.0312C38.9434 71.75 38.4277 71.5859 37.8652 71.5391C36.3418 71.5625 35.2051 71.8789 34.4551 72.4883C33.7285 73.0977 33.2715 74.0938 33.084 75.4766Z" fill="#39C442"/>
<path d="M47.8145 88.4492C48.0488 88.0977 48.2363 87.7695 48.377 87.4648C48.5176 87.1602 48.6348 86.9023 48.7285 86.6914C48.8223 86.4336 48.8926 86.1992 48.9395 85.9883C48.9629 85.8477 48.9746 85.4375 48.9746 84.7578C48.9746 84.0781 48.9512 83.2227 48.9043 82.1914C48.8809 81.1602 48.8457 80 48.7988 78.7109C48.7754 77.4219 48.7285 76.1094 48.6582 74.7734C48.6113 73.4375 48.5527 72.1367 48.4824 70.8711C48.4355 69.6055 48.3887 68.4688 48.3418 67.4609C48.2949 66.4297 48.248 65.5859 48.2012 64.9297C48.1543 64.2734 48.1191 63.8984 48.0957 63.8047C48.0488 63.6641 47.9668 63.5234 47.8496 63.3828C47.6152 63.1016 47.2168 62.832 46.6543 62.5742C47.8496 62.2695 48.7637 62.0234 49.3965 61.8359C49.7715 61.7422 50.0996 61.6484 50.3809 61.5547C50.6387 61.4609 50.8965 61.3672 51.1543 61.2734C51.3652 61.1797 51.5996 61.0742 51.8574 60.957C52.1152 60.8164 52.3496 60.6641 52.5605 60.5C52.4434 61.1797 52.3496 61.8359 52.2793 62.4688C52.209 63.1016 52.1504 63.6875 52.1035 64.2266C52.0566 64.8359 52.0332 65.4219 52.0332 65.9844C51.916 67.1328 51.8457 68.3867 51.8223 69.7461C51.8223 71.082 51.834 72.4414 51.8574 73.8242C51.8809 75.207 51.9277 76.5547 51.998 77.8672C52.0684 79.1797 52.1387 80.375 52.209 81.4531C52.3027 82.5078 52.3848 83.4102 52.4551 84.1602C52.5488 84.8867 52.6191 85.3555 52.666 85.5664C52.7598 85.918 52.8535 86.2578 52.9473 86.5859C53.041 86.8672 53.1465 87.1602 53.2637 87.4648C53.3809 87.793 53.5215 88.0508 53.6855 88.2383H50.2754C49.9707 88.2383 49.6777 88.25 49.3965 88.2734C49.1387 88.2969 48.8691 88.3203 48.5879 88.3438C48.3066 88.3672 48.0488 88.4023 47.8145 88.4492Z" fill="#39C442"/>
<path d="M53.8965 71.082C54.6465 70.9648 55.2559 70.8711 55.7246 70.8008C56.2168 70.707 56.6152 70.6367 56.9199 70.5898C57.2715 70.5195 57.541 70.4609 57.7285 70.4141C57.916 70.3672 58.1855 70.2969 58.5371 70.2031C58.8418 70.1094 59.2402 70.0039 59.7324 69.8867C60.2246 69.7461 60.8457 69.5586 61.5957 69.3242C61.4082 69.5586 61.2559 69.7695 61.1387 69.957C61.0449 70.1211 60.9512 70.2617 60.8574 70.3789C60.7637 70.5195 60.6816 70.6484 60.6113 70.7656C60.541 70.8828 60.4707 71.0586 60.4004 71.293C60.3535 71.4805 60.2949 71.75 60.2246 72.1016C60.1543 72.4297 60.0957 72.8633 60.0488 73.4023C61.3145 72.6055 62.4746 72.0078 63.5293 71.6094C64.6074 71.2109 65.5449 70.9297 66.3418 70.7656C67.2793 70.5781 68.123 70.5078 68.873 70.5547C69.8105 70.625 70.6777 70.8359 71.4746 71.1875C72.2949 71.5156 73.0332 71.9141 73.6895 72.3828C74.3457 72.8516 74.9199 73.3672 75.4121 73.9297C75.9043 74.4922 76.291 75.0547 76.5723 75.6172C76.7598 75.9922 76.877 76.5312 76.9238 77.2344C76.9941 77.9375 76.9238 78.6875 76.7129 79.4844C76.502 80.2812 76.127 81.0664 75.5879 81.8398C75.0723 82.5898 74.334 83.1875 73.373 83.6328C71.709 84.3828 70.0566 84.8047 68.416 84.8984C67.7129 84.9453 66.9863 84.9219 66.2363 84.8281C65.5098 84.7344 64.7715 84.5352 64.0215 84.2305C63.2949 83.9258 62.5918 83.4922 61.9121 82.9297C61.2324 82.3438 60.6113 81.5938 60.0488 80.6797C59.8613 81.875 59.7207 82.918 59.627 83.8086C59.5566 84.6758 59.5098 85.4023 59.4863 85.9883C59.4629 86.668 59.4629 87.2422 59.4863 87.7109C59.5332 88.1797 59.627 88.6836 59.7676 89.2227C59.8848 89.6914 60.0488 90.2305 60.2598 90.8398C60.4941 91.4727 60.7871 92.1289 61.1387 92.8086C60.998 92.7617 60.7988 92.7266 60.541 92.7031C60.3066 92.7031 60.0605 92.7266 59.8027 92.7734C59.5215 92.8203 59.2051 92.8672 58.8535 92.9141C58.5254 92.9844 58.1621 93.0664 57.7637 93.1602C57.4355 93.2305 57.0488 93.3125 56.6035 93.4062C56.1816 93.5234 55.748 93.6523 55.3027 93.793C55.5605 93.4883 55.7598 93.1367 55.9004 92.7383C56.0645 92.3633 56.1934 92.0117 56.2871 91.6836C56.3809 91.2852 56.4629 90.8867 56.5332 90.4883C56.5566 90.1367 56.5918 89.4688 56.6387 88.4844C56.709 87.5234 56.7676 86.4102 56.8145 85.1445C56.8613 83.8555 56.8965 82.5078 56.9199 81.1016C56.9668 79.6953 56.9902 78.3945 56.9902 77.1992C57.0137 75.9805 57.0137 74.9492 56.9902 74.1055C56.9668 73.2617 56.9199 72.7695 56.8496 72.6289C56.7559 72.4648 56.5801 72.2891 56.3223 72.1016C56.1113 71.9375 55.8066 71.7734 55.4082 71.6094C55.0332 71.4453 54.5293 71.2695 53.8965 71.082ZM62.2637 77.4805C62.0996 78.0195 62.0645 78.5469 62.1582 79.0625C62.252 79.5781 62.4863 80.0586 62.8613 80.5039C63.2598 80.9492 63.8105 81.3477 64.5137 81.6992C65.2402 82.0273 66.1426 82.2734 67.2207 82.4375C68.2988 82.6016 69.1191 82.5781 69.6816 82.3672C70.2441 82.1562 70.6543 81.8281 70.9121 81.3828C71.1934 80.9141 71.3809 80.375 71.4746 79.7656C71.5684 79.1328 71.6855 78.4766 71.8262 77.7969C71.9668 77.1406 71.9434 76.4727 71.7559 75.793C71.5684 75.0898 71.2988 74.457 70.9473 73.8945C70.6191 73.332 70.2441 72.875 69.8223 72.5234C69.4238 72.1484 69.0723 71.9609 68.7676 71.9609C68.041 71.9609 67.3262 72.1484 66.623 72.5234C65.9199 72.8984 65.2754 73.3672 64.6895 73.9297C64.1035 74.4922 63.5879 75.1016 63.1426 75.7578C62.7207 76.3906 62.4277 76.9648 62.2637 77.4805Z" fill="#39C442"/>
<path d="M76.5723 62.293C77.4629 62.5039 78.2598 62.668 78.9629 62.7852C79.6895 62.8789 80.2988 62.9492 80.791 62.9961C81.377 63.0664 81.8926 63.0898 82.3379 63.0664C82.9004 63.043 83.6035 62.9609 84.4473 62.8203C85.291 62.6797 86.1816 62.5391 87.1191 62.3984C88.0566 62.2578 88.9824 62.1406 89.8965 62.0469C90.8105 61.9531 91.6074 61.9414 92.2871 62.0117C92.9668 62.082 93.6816 62.2461 94.4316 62.5039C95.1816 62.7383 95.8848 63.0664 96.541 63.4883C97.1973 63.8867 97.7598 64.3789 98.2285 64.9648C98.7207 65.5508 99.0254 66.2305 99.1426 67.0039C99.2598 67.7539 99.1895 68.5625 98.9316 69.4297C98.6738 70.2734 98.2637 71.1055 97.7012 71.9258C97.1387 72.7227 96.4355 73.4609 95.5918 74.1406C94.748 74.8203 93.8105 75.3711 92.7793 75.793C91.959 76.0977 91.0684 76.332 90.1074 76.4961C89.2871 76.6367 88.3262 76.7305 87.2246 76.7773C86.1465 76.8008 84.998 76.6836 83.7793 76.4258C83.6152 77.1055 83.5215 77.7383 83.498 78.3242C83.498 78.8867 83.5215 79.3906 83.5684 79.8359C83.6387 80.3516 83.7324 80.8203 83.8496 81.2422C83.9902 81.6641 84.166 82.1562 84.377 82.7188C84.5645 83.1875 84.7754 83.7617 85.0098 84.4414C85.2676 85.0977 85.5723 85.8359 85.9238 86.6562C85.502 86.6562 85.0918 86.668 84.6934 86.6914C84.2949 86.6914 83.9316 86.7031 83.6035 86.7266C83.2285 86.75 82.877 86.7734 82.5488 86.7969C82.1738 86.8203 81.752 86.8672 81.2832 86.9375C80.8848 86.9844 80.3809 87.0547 79.7715 87.1484C79.1855 87.2422 78.5176 87.3594 77.7676 87.5C78.2598 86.7969 78.6465 86.1523 78.9277 85.5664C79.2324 84.957 79.4551 84.4297 79.5957 83.9844C79.7598 83.4688 79.8652 83 79.9121 82.5781C79.9355 82.2266 79.9355 81.6055 79.9121 80.7148C79.9121 79.8242 79.9004 78.793 79.877 77.6211C79.8535 76.4492 79.8184 75.2188 79.7715 73.9297C79.7246 72.6406 79.666 71.4336 79.5957 70.3086C79.5254 69.1602 79.4434 68.1758 79.3496 67.3555C79.2793 66.5352 79.209 65.9961 79.1387 65.7383C79.0449 65.4336 78.8809 65.1055 78.6465 64.7539C78.459 64.4492 78.1895 64.0977 77.8379 63.6992C77.5098 63.2773 77.0879 62.8086 76.5723 62.293ZM83.8496 69.2188C83.8262 69.4531 83.8145 69.6992 83.8145 69.957C83.8145 70.4492 83.8496 71.082 83.9199 71.8555C84.084 72.2539 84.2832 72.582 84.5176 72.8398C84.7754 73.0977 85.0449 73.2969 85.3262 73.4375C85.6309 73.5781 85.9355 73.6719 86.2402 73.7188C86.5449 73.7656 86.8496 73.7891 87.1543 73.7891C87.8574 73.7656 88.5957 73.6016 89.3691 73.2969C90.4004 72.8516 91.127 72.2188 91.5488 71.3984C91.9707 70.5781 92.1934 69.7344 92.2168 68.8672C92.2402 68 92.0879 67.2031 91.7598 66.4766C91.4551 65.75 91.0801 65.2578 90.6348 65C90.2598 64.8359 89.7793 64.7656 89.1934 64.7891C88.6777 64.8125 88.0332 64.9414 87.2598 65.1758C86.4863 65.4102 85.5371 65.832 84.4121 66.4414C84.2949 66.8633 84.2012 67.2383 84.1309 67.5664C84.0605 67.8945 84.002 68.1875 83.9551 68.4453C83.9082 68.7266 83.873 68.9844 83.8496 69.2188Z" fill="#39C442"/>
<path d="M107.404 81.8047C108.061 81.8047 108.67 81.7344 109.232 81.5938C109.701 81.4766 110.146 81.2891 110.568 81.0312C111.014 80.75 111.307 80.3398 111.447 79.8008C111.916 79.8945 112.314 79.9766 112.643 80.0469C112.971 80.0938 113.252 80.1406 113.486 80.1875C113.744 80.2578 113.967 80.3047 114.154 80.3281C114.342 80.375 114.564 80.4219 114.822 80.4688C115.057 80.5156 115.338 80.5742 115.666 80.6445C116.018 80.6914 116.428 80.7617 116.896 80.8555C116.545 80.8086 116.182 80.8438 115.807 80.9609C115.455 81.0781 115.115 81.207 114.787 81.3477C114.412 81.5117 114.061 81.7109 113.732 81.9453C113.521 82.0859 113.275 82.2969 112.994 82.5781C112.736 82.8594 112.361 83.1289 111.869 83.3867C111.377 83.6445 110.721 83.8672 109.9 84.0547C109.104 84.2188 108.072 84.2773 106.807 84.2305C105.283 84.1836 104.006 83.9141 102.975 83.4219C101.943 82.9062 101.111 82.2852 100.479 81.5586C99.8457 80.8086 99.3887 80 99.1074 79.1328C98.8262 78.2656 98.6738 77.457 98.6504 76.707C98.627 75.957 98.8496 75.1719 99.3184 74.3516C99.7871 73.5312 100.443 72.7812 101.287 72.1016C102.154 71.4219 103.197 70.8711 104.416 70.4492C105.635 70.0039 106.971 69.7812 108.424 69.7812C109.268 69.7812 110.041 69.8867 110.744 70.0977C111.471 70.2852 112.127 70.543 112.713 70.8711C113.322 71.1992 113.85 71.5742 114.295 71.9961C114.74 72.3945 115.115 72.8047 115.42 73.2266C115.725 73.6719 115.982 74.1406 116.193 74.6328C116.381 75.0547 116.533 75.5352 116.65 76.0742C116.768 76.6133 116.803 77.1641 116.756 77.7266C114.975 77.7734 113.533 77.8086 112.432 77.832C111.354 77.8555 110.51 77.8672 109.9 77.8672H107.123C106.701 77.8672 106.15 77.8789 105.471 77.9023C104.791 77.9258 103.959 77.9609 102.975 78.0078C103.092 78.9453 103.385 79.6719 103.854 80.1875C104.346 80.6797 104.861 81.0547 105.4 81.3125C106.01 81.5938 106.678 81.7578 107.404 81.8047ZM104.24 75.4766C104.99 75.5234 105.611 75.5586 106.104 75.582C106.619 75.6055 107.041 75.6289 107.369 75.6523C107.721 75.6758 108.002 75.6875 108.213 75.6875H109.092C109.678 75.6875 110.768 75.6523 112.361 75.582C112.291 74.5508 112.068 73.7656 111.693 73.2266C111.342 72.6875 110.967 72.2891 110.568 72.0312C110.1 71.75 109.584 71.5859 109.021 71.5391C107.498 71.5625 106.361 71.8789 105.611 72.4883C104.885 73.0977 104.428 74.0938 104.24 75.4766Z" fill="#39C442"/>
<path d="M117.74 65.3164C118.443 65.3867 119.029 65.4453 119.498 65.4922C119.99 65.5391 120.389 65.5742 120.693 65.5977C121.045 65.6211 121.326 65.6328 121.537 65.6328C121.748 65.6562 122.029 65.6562 122.381 65.6328C122.686 65.6094 123.084 65.5859 123.576 65.5625C124.068 65.5156 124.689 65.4453 125.439 65.3516C125.275 65.5859 125.146 65.7969 125.053 65.9844C124.959 66.1484 124.877 66.3008 124.807 66.4414L124.596 66.8633C124.549 67.0039 124.502 67.1445 124.455 67.2852C124.408 67.4023 124.361 67.543 124.314 67.707C124.291 67.8711 124.268 68.0469 124.244 68.2344H129.658L129.166 71.082L124.209 70.8008C124.092 71.9961 124.01 72.9219 123.963 73.5781C123.916 74.2344 123.869 74.7148 123.822 75.0195L123.752 75.6523C123.682 76.543 123.611 77.5156 123.541 78.5703C123.471 79.6016 123.447 80.5625 123.471 81.4531C123.494 82.3438 123.576 83.0938 123.717 83.7031C123.857 84.2891 124.104 84.582 124.455 84.582C124.807 84.582 125.135 84.4883 125.439 84.3008C125.744 84.1133 126.002 83.8906 126.213 83.6328C126.447 83.375 126.623 83.1172 126.74 82.8594C126.857 82.5781 126.916 82.3672 126.916 82.2266C126.916 82.0859 126.881 81.9219 126.811 81.7344C126.693 81.3828 126.482 80.9375 126.178 80.3984C126.857 80.5625 127.455 80.7266 127.971 80.8906C128.229 80.9844 128.463 81.0781 128.674 81.1719C128.908 81.2656 129.178 81.3711 129.482 81.4883C129.74 81.6055 130.068 81.7461 130.467 81.9102C130.865 82.0742 131.334 82.2734 131.873 82.5078C131.357 82.6016 130.982 82.7539 130.748 82.9648C130.607 83.0586 130.502 83.1641 130.432 83.2812C130.268 83.5391 130.08 83.8906 129.869 84.3359C129.658 84.7578 129.342 85.1797 128.92 85.6016C128.498 86.0234 127.924 86.3984 127.197 86.7266C126.494 87.0547 125.545 87.2422 124.35 87.2891C123.107 87.3359 122.158 87.125 121.502 86.6562C120.869 86.1875 120.4 85.6484 120.096 85.0391C119.814 84.4062 119.65 83.7852 119.604 83.1758C119.557 82.5664 119.521 82.1562 119.498 81.9453C119.475 81.7344 119.475 81.207 119.498 80.3633C119.521 79.5195 119.557 78.5938 119.604 77.5859C119.65 76.5547 119.697 75.5703 119.744 74.6328C119.791 73.6719 119.814 72.9688 119.814 72.5234C119.814 72.2891 119.826 72.043 119.85 71.7852C119.85 71.5742 119.85 71.3516 119.85 71.1172C119.873 70.8594 119.885 70.6133 119.885 70.3789L114.787 70.3438L114.576 68.3398L119.709 68.4805C119.662 68.2227 119.604 67.9883 119.533 67.7773C119.486 67.543 119.439 67.3555 119.393 67.2148C119.322 67.0508 119.252 66.9102 119.182 66.793C119.088 66.6758 118.982 66.5469 118.865 66.4062C118.748 66.2891 118.596 66.1367 118.408 65.9492C118.221 65.7617 117.998 65.5508 117.74 65.3164Z" fill="#39C442"/>
<path d="M4.25586 62.5039C5.07617 62.5977 5.76758 62.668 6.33008 62.7148C6.89258 62.7383 7.33789 62.7617 7.66602 62.7852C8.06445 62.8086 8.38086 62.8203 8.61523 62.8203C9.01367 62.8203 9.4707 62.8086 9.98633 62.7852C10.4316 62.7617 10.9473 62.7266 11.5332 62.6797C12.1426 62.6094 12.7988 62.5039 13.502 62.3633C13.1738 62.7148 12.9043 63.0547 12.6934 63.3828C12.4824 63.6875 12.3184 63.9688 12.2012 64.2266C12.0605 64.5078 11.9434 64.7656 11.8496 65C11.7559 65.3047 11.6504 65.7734 11.5332 66.4062C11.416 66.9453 11.2871 67.707 11.1465 68.6914C11.0293 69.6758 10.877 70.9648 10.6895 72.5586C11.4863 72.582 12.1777 72.5938 12.7637 72.5938C13.3496 72.5703 13.8418 72.5586 14.2402 72.5586H15.4004C15.7285 72.5352 16.1035 72.5117 16.5254 72.4883C17.2285 72.4648 18.2949 72.3945 19.7246 72.2773C19.8418 71.1992 19.9004 70.2734 19.9004 69.5C19.9238 68.7031 19.9121 68.0352 19.8652 67.4961C19.8184 66.8867 19.748 66.3711 19.6543 65.9492C19.584 65.7148 19.4785 65.4336 19.3379 65.1055C19.2207 64.8242 19.0566 64.4844 18.8457 64.0859C18.6582 63.6641 18.4004 63.1602 18.0723 62.5742C18.6816 62.668 19.2207 62.7383 19.6895 62.7852C20.1816 62.8086 20.5918 62.832 20.9199 62.8555C21.2949 62.8789 21.6113 62.8906 21.8691 62.8906C22.127 62.8906 22.4668 62.8789 22.8887 62.8555C23.2402 62.832 23.6738 62.8203 24.1895 62.8203C24.7051 62.7969 25.3379 62.7617 26.0879 62.7148C25.9004 63.043 25.7363 63.3828 25.5957 63.7344C25.4551 64.0859 25.3379 64.4023 25.2441 64.6836C25.1504 65.0117 25.0566 65.3398 24.9629 65.668C24.8457 66.1602 24.7402 66.875 24.6465 67.8125C24.5762 68.75 24.5059 69.793 24.4355 70.9414C24.3887 72.0898 24.3418 73.2852 24.2949 74.5273C24.2715 75.7695 24.248 76.9414 24.2246 78.043C24.2246 79.1445 24.2363 80.1289 24.2598 80.9961C24.2832 81.8398 24.3301 82.4375 24.4004 82.7891C24.4707 83.2109 24.5879 83.6445 24.752 84.0898C24.8926 84.4883 25.0801 84.9219 25.3145 85.3906C25.5488 85.8359 25.8535 86.2578 26.2285 86.6562L17.7559 87.2891C18.1074 86.9609 18.3887 86.6445 18.5996 86.3398C18.8105 86.0117 18.9746 85.7305 19.0918 85.4961C19.209 85.2383 19.291 84.9922 19.3379 84.7578C19.3613 84.4766 19.3965 83.9844 19.4434 83.2812C19.4902 82.6953 19.5371 81.8633 19.584 80.7852C19.6309 79.707 19.6777 78.2773 19.7246 76.4961C19.3965 76.4961 18.998 76.5078 18.5293 76.5312C18.084 76.5312 17.6621 76.543 17.2637 76.5664C16.7949 76.5898 16.3027 76.6016 15.7871 76.6016C15.2715 76.625 14.7324 76.6484 14.1699 76.6719C13.7012 76.7188 13.1738 76.7656 12.5879 76.8125C12.0254 76.8359 11.4629 76.8711 10.9004 76.918C10.8535 77.9023 10.8535 78.7695 10.9004 79.5195C10.9473 80.2461 11.0176 80.8672 11.1113 81.3828C11.2051 81.9922 11.3223 82.5195 11.4629 82.9648C11.6035 83.3867 11.7559 83.8086 11.9199 84.2305C12.0605 84.6055 12.2246 85.0039 12.4121 85.4258C12.623 85.8477 12.834 86.2227 13.0449 86.5508C12.5996 86.5039 12.1895 86.4688 11.8145 86.4453C11.4395 86.3984 11.1113 86.3516 10.8301 86.3047C10.502 86.2812 10.1855 86.2578 9.88086 86.2344C9.57617 86.2344 9.21289 86.2227 8.79102 86.1992C8.41602 86.1758 7.94727 86.1641 7.38477 86.1641C6.82227 86.1406 6.16602 86.1289 5.41602 86.1289C5.86133 85.6836 6.21289 85.25 6.4707 84.8281C6.75195 84.3828 6.95117 83.9844 7.06836 83.6328C7.20898 83.2109 7.30273 82.8242 7.34961 82.4727C7.37305 82.168 7.38477 81.5938 7.38477 80.75C7.4082 79.9062 7.4082 78.9453 7.38477 77.8672C7.38477 76.7656 7.37305 75.6172 7.34961 74.4219C7.32617 73.2031 7.29102 72.0664 7.24414 71.0117C7.2207 69.957 7.18555 69.0547 7.13867 68.3047C7.11523 67.5312 7.0918 67.0508 7.06836 66.8633C6.95117 66.4414 6.77539 65.9844 6.54102 65.4922C6.33008 65.0938 6.04883 64.6367 5.69727 64.1211C5.3457 63.582 4.86523 63.043 4.25586 62.5039Z" stroke="#001A00" stroke-width="2.8" mask="url(#path-3-outside-1_652_1965)"/>
<path d="M36.248 81.8047C36.9043 81.8047 37.5137 81.7344 38.0762 81.5938C38.5449 81.4766 38.9902 81.2891 39.4121 81.0312C39.8574 80.75 40.1504 80.3398 40.291 79.8008C40.7598 79.8945 41.1582 79.9766 41.4863 80.0469C41.8145 80.0938 42.0957 80.1406 42.3301 80.1875C42.5879 80.2578 42.8105 80.3047 42.998 80.3281C43.1855 80.375 43.4082 80.4219 43.666 80.4688C43.9004 80.5156 44.1816 80.5742 44.5098 80.6445C44.8613 80.6914 45.2715 80.7617 45.7402 80.8555C45.3887 80.8086 45.0254 80.8438 44.6504 80.9609C44.2988 81.0781 43.959 81.207 43.6309 81.3477C43.2559 81.5117 42.9043 81.7109 42.5762 81.9453C42.3652 82.0859 42.1191 82.2969 41.8379 82.5781C41.5801 82.8594 41.2051 83.1289 40.7129 83.3867C40.2207 83.6445 39.5645 83.8672 38.7441 84.0547C37.9473 84.2188 36.916 84.2773 35.6504 84.2305C34.127 84.1836 32.8496 83.9141 31.8184 83.4219C30.7871 82.9062 29.9551 82.2852 29.3223 81.5586C28.6895 80.8086 28.2324 80 27.9512 79.1328C27.6699 78.2656 27.5176 77.457 27.4941 76.707C27.4707 75.957 27.6934 75.1719 28.1621 74.3516C28.6309 73.5312 29.2871 72.7812 30.1309 72.1016C30.998 71.4219 32.041 70.8711 33.2598 70.4492C34.4785 70.0039 35.8145 69.7812 37.2676 69.7812C38.1113 69.7812 38.8848 69.8867 39.5879 70.0977C40.3145 70.2852 40.9707 70.543 41.5566 70.8711C42.166 71.1992 42.6934 71.5742 43.1387 71.9961C43.584 72.3945 43.959 72.8047 44.2637 73.2266C44.5684 73.6719 44.8262 74.1406 45.0371 74.6328C45.2246 75.0547 45.377 75.5352 45.4941 76.0742C45.6113 76.6133 45.6465 77.1641 45.5996 77.7266C43.8184 77.7734 42.377 77.8086 41.2754 77.832C40.1973 77.8555 39.3535 77.8672 38.7441 77.8672H35.9668C35.5449 77.8672 34.9941 77.8789 34.3145 77.9023C33.6348 77.9258 32.8027 77.9609 31.8184 78.0078C31.9355 78.9453 32.2285 79.6719 32.6973 80.1875C33.1895 80.6797 33.7051 81.0547 34.2441 81.3125C34.8535 81.5938 35.5215 81.7578 36.248 81.8047ZM33.084 75.4766C33.834 75.5234 34.4551 75.5586 34.9473 75.582C35.4629 75.6055 35.8848 75.6289 36.2129 75.6523C36.5645 75.6758 36.8457 75.6875 37.0566 75.6875H37.9355C38.5215 75.6875 39.6113 75.6523 41.2051 75.582C41.1348 74.5508 40.9121 73.7656 40.5371 73.2266C40.1855 72.6875 39.8105 72.2891 39.4121 72.0312C38.9434 71.75 38.4277 71.5859 37.8652 71.5391C36.3418 71.5625 35.2051 71.8789 34.4551 72.4883C33.7285 73.0977 33.2715 74.0938 33.084 75.4766Z" stroke="#001A00" stroke-width="2.8" mask="url(#path-3-outside-1_652_1965)"/>
<path d="M47.8145 88.4492C48.0488 88.0977 48.2363 87.7695 48.377 87.4648C48.5176 87.1602 48.6348 86.9023 48.7285 86.6914C48.8223 86.4336 48.8926 86.1992 48.9395 85.9883C48.9629 85.8477 48.9746 85.4375 48.9746 84.7578C48.9746 84.0781 48.9512 83.2227 48.9043 82.1914C48.8809 81.1602 48.8457 80 48.7988 78.7109C48.7754 77.4219 48.7285 76.1094 48.6582 74.7734C48.6113 73.4375 48.5527 72.1367 48.4824 70.8711C48.4355 69.6055 48.3887 68.4688 48.3418 67.4609C48.2949 66.4297 48.248 65.5859 48.2012 64.9297C48.1543 64.2734 48.1191 63.8984 48.0957 63.8047C48.0488 63.6641 47.9668 63.5234 47.8496 63.3828C47.6152 63.1016 47.2168 62.832 46.6543 62.5742C47.8496 62.2695 48.7637 62.0234 49.3965 61.8359C49.7715 61.7422 50.0996 61.6484 50.3809 61.5547C50.6387 61.4609 50.8965 61.3672 51.1543 61.2734C51.3652 61.1797 51.5996 61.0742 51.8574 60.957C52.1152 60.8164 52.3496 60.6641 52.5605 60.5C52.4434 61.1797 52.3496 61.8359 52.2793 62.4688C52.209 63.1016 52.1504 63.6875 52.1035 64.2266C52.0566 64.8359 52.0332 65.4219 52.0332 65.9844C51.916 67.1328 51.8457 68.3867 51.8223 69.7461C51.8223 71.082 51.834 72.4414 51.8574 73.8242C51.8809 75.207 51.9277 76.5547 51.998 77.8672C52.0684 79.1797 52.1387 80.375 52.209 81.4531C52.3027 82.5078 52.3848 83.4102 52.4551 84.1602C52.5488 84.8867 52.6191 85.3555 52.666 85.5664C52.7598 85.918 52.8535 86.2578 52.9473 86.5859C53.041 86.8672 53.1465 87.1602 53.2637 87.4648C53.3809 87.793 53.5215 88.0508 53.6855 88.2383H50.2754C49.9707 88.2383 49.6777 88.25 49.3965 88.2734C49.1387 88.2969 48.8691 88.3203 48.5879 88.3438C48.3066 88.3672 48.0488 88.4023 47.8145 88.4492Z" stroke="#001A00" stroke-width="2.8" mask="url(#path-3-outside-1_652_1965)"/>
<path d="M53.8965 71.082C54.6465 70.9648 55.2559 70.8711 55.7246 70.8008C56.2168 70.707 56.6152 70.6367 56.9199 70.5898C57.2715 70.5195 57.541 70.4609 57.7285 70.4141C57.916 70.3672 58.1855 70.2969 58.5371 70.2031C58.8418 70.1094 59.2402 70.0039 59.7324 69.8867C60.2246 69.7461 60.8457 69.5586 61.5957 69.3242C61.4082 69.5586 61.2559 69.7695 61.1387 69.957C61.0449 70.1211 60.9512 70.2617 60.8574 70.3789C60.7637 70.5195 60.6816 70.6484 60.6113 70.7656C60.541 70.8828 60.4707 71.0586 60.4004 71.293C60.3535 71.4805 60.2949 71.75 60.2246 72.1016C60.1543 72.4297 60.0957 72.8633 60.0488 73.4023C61.3145 72.6055 62.4746 72.0078 63.5293 71.6094C64.6074 71.2109 65.5449 70.9297 66.3418 70.7656C67.2793 70.5781 68.123 70.5078 68.873 70.5547C69.8105 70.625 70.6777 70.8359 71.4746 71.1875C72.2949 71.5156 73.0332 71.9141 73.6895 72.3828C74.3457 72.8516 74.9199 73.3672 75.4121 73.9297C75.9043 74.4922 76.291 75.0547 76.5723 75.6172C76.7598 75.9922 76.877 76.5312 76.9238 77.2344C76.9941 77.9375 76.9238 78.6875 76.7129 79.4844C76.502 80.2812 76.127 81.0664 75.5879 81.8398C75.0723 82.5898 74.334 83.1875 73.373 83.6328C71.709 84.3828 70.0566 84.8047 68.416 84.8984C67.7129 84.9453 66.9863 84.9219 66.2363 84.8281C65.5098 84.7344 64.7715 84.5352 64.0215 84.2305C63.2949 83.9258 62.5918 83.4922 61.9121 82.9297C61.2324 82.3438 60.6113 81.5938 60.0488 80.6797C59.8613 81.875 59.7207 82.918 59.627 83.8086C59.5566 84.6758 59.5098 85.4023 59.4863 85.9883C59.4629 86.668 59.4629 87.2422 59.4863 87.7109C59.5332 88.1797 59.627 88.6836 59.7676 89.2227C59.8848 89.6914 60.0488 90.2305 60.2598 90.8398C60.4941 91.4727 60.7871 92.1289 61.1387 92.8086C60.998 92.7617 60.7988 92.7266 60.541 92.7031C60.3066 92.7031 60.0605 92.7266 59.8027 92.7734C59.5215 92.8203 59.2051 92.8672 58.8535 92.9141C58.5254 92.9844 58.1621 93.0664 57.7637 93.1602C57.4355 93.2305 57.0488 93.3125 56.6035 93.4062C56.1816 93.5234 55.748 93.6523 55.3027 93.793C55.5605 93.4883 55.7598 93.1367 55.9004 92.7383C56.0645 92.3633 56.1934 92.0117 56.2871 91.6836C56.3809 91.2852 56.4629 90.8867 56.5332 90.4883C56.5566 90.1367 56.5918 89.4688 56.6387 88.4844C56.709 87.5234 56.7676 86.4102 56.8145 85.1445C56.8613 83.8555 56.8965 82.5078 56.9199 81.1016C56.9668 79.6953 56.9902 78.3945 56.9902 77.1992C57.0137 75.9805 57.0137 74.9492 56.9902 74.1055C56.9668 73.2617 56.9199 72.7695 56.8496 72.6289C56.7559 72.4648 56.5801 72.2891 56.3223 72.1016C56.1113 71.9375 55.8066 71.7734 55.4082 71.6094C55.0332 71.4453 54.5293 71.2695 53.8965 71.082ZM62.2637 77.4805C62.0996 78.0195 62.0645 78.5469 62.1582 79.0625C62.252 79.5781 62.4863 80.0586 62.8613 80.5039C63.2598 80.9492 63.8105 81.3477 64.5137 81.6992C65.2402 82.0273 66.1426 82.2734 67.2207 82.4375C68.2988 82.6016 69.1191 82.5781 69.6816 82.3672C70.2441 82.1562 70.6543 81.8281 70.9121 81.3828C71.1934 80.9141 71.3809 80.375 71.4746 79.7656C71.5684 79.1328 71.6855 78.4766 71.8262 77.7969C71.9668 77.1406 71.9434 76.4727 71.7559 75.793C71.5684 75.0898 71.2988 74.457 70.9473 73.8945C70.6191 73.332 70.2441 72.875 69.8223 72.5234C69.4238 72.1484 69.0723 71.9609 68.7676 71.9609C68.041 71.9609 67.3262 72.1484 66.623 72.5234C65.9199 72.8984 65.2754 73.3672 64.6895 73.9297C64.1035 74.4922 63.5879 75.1016 63.1426 75.7578C62.7207 76.3906 62.4277 76.9648 62.2637 77.4805Z" stroke="#001A00" stroke-width="2.8" mask="url(#path-3-outside-1_652_1965)"/>
<path d="M76.5723 62.293C77.4629 62.5039 78.2598 62.668 78.9629 62.7852C79.6895 62.8789 80.2988 62.9492 80.791 62.9961C81.377 63.0664 81.8926 63.0898 82.3379 63.0664C82.9004 63.043 83.6035 62.9609 84.4473 62.8203C85.291 62.6797 86.1816 62.5391 87.1191 62.3984C88.0566 62.2578 88.9824 62.1406 89.8965 62.0469C90.8105 61.9531 91.6074 61.9414 92.2871 62.0117C92.9668 62.082 93.6816 62.2461 94.4316 62.5039C95.1816 62.7383 95.8848 63.0664 96.541 63.4883C97.1973 63.8867 97.7598 64.3789 98.2285 64.9648C98.7207 65.5508 99.0254 66.2305 99.1426 67.0039C99.2598 67.7539 99.1895 68.5625 98.9316 69.4297C98.6738 70.2734 98.2637 71.1055 97.7012 71.9258C97.1387 72.7227 96.4355 73.4609 95.5918 74.1406C94.748 74.8203 93.8105 75.3711 92.7793 75.793C91.959 76.0977 91.0684 76.332 90.1074 76.4961C89.2871 76.6367 88.3262 76.7305 87.2246 76.7773C86.1465 76.8008 84.998 76.6836 83.7793 76.4258C83.6152 77.1055 83.5215 77.7383 83.498 78.3242C83.498 78.8867 83.5215 79.3906 83.5684 79.8359C83.6387 80.3516 83.7324 80.8203 83.8496 81.2422C83.9902 81.6641 84.166 82.1562 84.377 82.7188C84.5645 83.1875 84.7754 83.7617 85.0098 84.4414C85.2676 85.0977 85.5723 85.8359 85.9238 86.6562C85.502 86.6562 85.0918 86.668 84.6934 86.6914C84.2949 86.6914 83.9316 86.7031 83.6035 86.7266C83.2285 86.75 82.877 86.7734 82.5488 86.7969C82.1738 86.8203 81.752 86.8672 81.2832 86.9375C80.8848 86.9844 80.3809 87.0547 79.7715 87.1484C79.1855 87.2422 78.5176 87.3594 77.7676 87.5C78.2598 86.7969 78.6465 86.1523 78.9277 85.5664C79.2324 84.957 79.4551 84.4297 79.5957 83.9844C79.7598 83.4688 79.8652 83 79.9121 82.5781C79.9355 82.2266 79.9355 81.6055 79.9121 80.7148C79.9121 79.8242 79.9004 78.793 79.877 77.6211C79.8535 76.4492 79.8184 75.2188 79.7715 73.9297C79.7246 72.6406 79.666 71.4336 79.5957 70.3086C79.5254 69.1602 79.4434 68.1758 79.3496 67.3555C79.2793 66.5352 79.209 65.9961 79.1387 65.7383C79.0449 65.4336 78.8809 65.1055 78.6465 64.7539C78.459 64.4492 78.1895 64.0977 77.8379 63.6992C77.5098 63.2773 77.0879 62.8086 76.5723 62.293ZM83.8496 69.2188C83.8262 69.4531 83.8145 69.6992 83.8145 69.957C83.8145 70.4492 83.8496 71.082 83.9199 71.8555C84.084 72.2539 84.2832 72.582 84.5176 72.8398C84.7754 73.0977 85.0449 73.2969 85.3262 73.4375C85.6309 73.5781 85.9355 73.6719 86.2402 73.7188C86.5449 73.7656 86.8496 73.7891 87.1543 73.7891C87.8574 73.7656 88.5957 73.6016 89.3691 73.2969C90.4004 72.8516 91.127 72.2188 91.5488 71.3984C91.9707 70.5781 92.1934 69.7344 92.2168 68.8672C92.2402 68 92.0879 67.2031 91.7598 66.4766C91.4551 65.75 91.0801 65.2578 90.6348 65C90.2598 64.8359 89.7793 64.7656 89.1934 64.7891C88.6777 64.8125 88.0332 64.9414 87.2598 65.1758C86.4863 65.4102 85.5371 65.832 84.4121 66.4414C84.2949 66.8633 84.2012 67.2383 84.1309 67.5664C84.0605 67.8945 84.002 68.1875 83.9551 68.4453C83.9082 68.7266 83.873 68.9844 83.8496 69.2188Z" stroke="#001A00" stroke-width="2.8" mask="url(#path-3-outside-1_652_1965)"/>
<path d="M107.404 81.8047C108.061 81.8047 108.67 81.7344 109.232 81.5938C109.701 81.4766 110.146 81.2891 110.568 81.0312C111.014 80.75 111.307 80.3398 111.447 79.8008C111.916 79.8945 112.314 79.9766 112.643 80.0469C112.971 80.0938 113.252 80.1406 113.486 80.1875C113.744 80.2578 113.967 80.3047 114.154 80.3281C114.342 80.375 114.564 80.4219 114.822 80.4688C115.057 80.5156 115.338 80.5742 115.666 80.6445C116.018 80.6914 116.428 80.7617 116.896 80.8555C116.545 80.8086 116.182 80.8438 115.807 80.9609C115.455 81.0781 115.115 81.207 114.787 81.3477C114.412 81.5117 114.061 81.7109 113.732 81.9453C113.521 82.0859 113.275 82.2969 112.994 82.5781C112.736 82.8594 112.361 83.1289 111.869 83.3867C111.377 83.6445 110.721 83.8672 109.9 84.0547C109.104 84.2188 108.072 84.2773 106.807 84.2305C105.283 84.1836 104.006 83.9141 102.975 83.4219C101.943 82.9062 101.111 82.2852 100.479 81.5586C99.8457 80.8086 99.3887 80 99.1074 79.1328C98.8262 78.2656 98.6738 77.457 98.6504 76.707C98.627 75.957 98.8496 75.1719 99.3184 74.3516C99.7871 73.5312 100.443 72.7812 101.287 72.1016C102.154 71.4219 103.197 70.8711 104.416 70.4492C105.635 70.0039 106.971 69.7812 108.424 69.7812C109.268 69.7812 110.041 69.8867 110.744 70.0977C111.471 70.2852 112.127 70.543 112.713 70.8711C113.322 71.1992 113.85 71.5742 114.295 71.9961C114.74 72.3945 115.115 72.8047 115.42 73.2266C115.725 73.6719 115.982 74.1406 116.193 74.6328C116.381 75.0547 116.533 75.5352 116.65 76.0742C116.768 76.6133 116.803 77.1641 116.756 77.7266C114.975 77.7734 113.533 77.8086 112.432 77.832C111.354 77.8555 110.51 77.8672 109.9 77.8672H107.123C106.701 77.8672 106.15 77.8789 105.471 77.9023C104.791 77.9258 103.959 77.9609 102.975 78.0078C103.092 78.9453 103.385 79.6719 103.854 80.1875C104.346 80.6797 104.861 81.0547 105.4 81.3125C106.01 81.5938 106.678 81.7578 107.404 81.8047ZM104.24 75.4766C104.99 75.5234 105.611 75.5586 106.104 75.582C106.619 75.6055 107.041 75.6289 107.369 75.6523C107.721 75.6758 108.002 75.6875 108.213 75.6875H109.092C109.678 75.6875 110.768 75.6523 112.361 75.582C112.291 74.5508 112.068 73.7656 111.693 73.2266C111.342 72.6875 110.967 72.2891 110.568 72.0312C110.1 71.75 109.584 71.5859 109.021 71.5391C107.498 71.5625 106.361 71.8789 105.611 72.4883C104.885 73.0977 104.428 74.0938 104.24 75.4766Z" stroke="#001A00" stroke-width="2.8" mask="url(#path-3-outside-1_652_1965)"/>
<path d="M117.74 65.3164C118.443 65.3867 119.029 65.4453 119.498 65.4922C119.99 65.5391 120.389 65.5742 120.693 65.5977C121.045 65.6211 121.326 65.6328 121.537 65.6328C121.748 65.6562 122.029 65.6562 122.381 65.6328C122.686 65.6094 123.084 65.5859 123.576 65.5625C124.068 65.5156 124.689 65.4453 125.439 65.3516C125.275 65.5859 125.146 65.7969 125.053 65.9844C124.959 66.1484 124.877 66.3008 124.807 66.4414L124.596 66.8633C124.549 67.0039 124.502 67.1445 124.455 67.2852C124.408 67.4023 124.361 67.543 124.314 67.707C124.291 67.8711 124.268 68.0469 124.244 68.2344H129.658L129.166 71.082L124.209 70.8008C124.092 71.9961 124.01 72.9219 123.963 73.5781C123.916 74.2344 123.869 74.7148 123.822 75.0195L123.752 75.6523C123.682 76.543 123.611 77.5156 123.541 78.5703C123.471 79.6016 123.447 80.5625 123.471 81.4531C123.494 82.3438 123.576 83.0938 123.717 83.7031C123.857 84.2891 124.104 84.582 124.455 84.582C124.807 84.582 125.135 84.4883 125.439 84.3008C125.744 84.1133 126.002 83.8906 126.213 83.6328C126.447 83.375 126.623 83.1172 126.74 82.8594C126.857 82.5781 126.916 82.3672 126.916 82.2266C126.916 82.0859 126.881 81.9219 126.811 81.7344C126.693 81.3828 126.482 80.9375 126.178 80.3984C126.857 80.5625 127.455 80.7266 127.971 80.8906C128.229 80.9844 128.463 81.0781 128.674 81.1719C128.908 81.2656 129.178 81.3711 129.482 81.4883C129.74 81.6055 130.068 81.7461 130.467 81.9102C130.865 82.0742 131.334 82.2734 131.873 82.5078C131.357 82.6016 130.982 82.7539 130.748 82.9648C130.607 83.0586 130.502 83.1641 130.432 83.2812C130.268 83.5391 130.08 83.8906 129.869 84.3359C129.658 84.7578 129.342 85.1797 128.92 85.6016C128.498 86.0234 127.924 86.3984 127.197 86.7266C126.494 87.0547 125.545 87.2422 124.35 87.2891C123.107 87.3359 122.158 87.125 121.502 86.6562C120.869 86.1875 120.4 85.6484 120.096 85.0391C119.814 84.4062 119.65 83.7852 119.604 83.1758C119.557 82.5664 119.521 82.1562 119.498 81.9453C119.475 81.7344 119.475 81.207 119.498 80.3633C119.521 79.5195 119.557 78.5938 119.604 77.5859C119.65 76.5547 119.697 75.5703 119.744 74.6328C119.791 73.6719 119.814 72.9688 119.814 72.5234C119.814 72.2891 119.826 72.043 119.85 71.7852C119.85 71.5742 119.85 71.3516 119.85 71.1172C119.873 70.8594 119.885 70.6133 119.885 70.3789L114.787 70.3438L114.576 68.3398L119.709 68.4805C119.662 68.2227 119.604 67.9883 119.533 67.7773C119.486 67.543 119.439 67.3555 119.393 67.2148C119.322 67.0508 119.252 66.9102 119.182 66.793C119.088 66.6758 118.982 66.5469 118.865 66.4062C118.748 66.2891 118.596 66.1367 118.408 65.9492C118.221 65.7617 117.998 65.5508 117.74 65.3164Z" stroke="#001A00" stroke-width="2.8" mask="url(#path-3-outside-1_652_1965)"/>
</g>
<defs>
<filter id="filter0_d_652_1965" x="49.4893" y="6.92468" width="41.6509" height="41.6507" filterUnits="userSpaceOnUse" color-interpolation-filters="sRGB">
<feFlood flood-opacity="0" result="BackgroundImageFix"/>
<feColorMatrix in="SourceAlpha" type="matrix" values="0 0 0 0 0 0 0 0 0 0 0 0 0 0 0 0 0 0 127 0" result="hardAlpha"/>
<feOffset dx="4.5" dy="4.5"/>
<feComposite in2="hardAlpha" operator="out"/>
<feColorMatrix type="matrix" values="0 0 0 0 0.0235294 0 0 0 0 0.0784314 0 0 0 0 0.027451 0 0 0 1 0"/>
<feBlend mode="normal" in2="BackgroundImageFix" result="effect1_dropShadow_652_1965"/>
<feBlend mode="normal" in="SourceGraphic" in2="effect1_dropShadow_652_1965" result="shape"/>
</filter>
<filter id="filter1_d_652_1965" x="42.5654" y="0" width="52.9985" height="53" filterUnits="userSpaceOnUse" color-interpolation-filters="sRGB">
<feFlood flood-opacity="0" result="BackgroundImageFix"/>
<feColorMatrix in="SourceAlpha" type="matrix" values="0 0 0 0 0 0 0 0 0 0 0 0 0 0 0 0 0 0 127 0" result="hardAlpha"/>
<feOffset dx="2" dy="2"/>
<feComposite in2="hardAlpha" operator="out"/>
<feColorMatrix type="matrix" values="0 0 0 0 0.0235294 0 0 0 0 0.0784314 0 0 0 0 0.027451 0 0 0 1 0"/>
<feBlend mode="normal" in2="BackgroundImageFix" result="effect1_dropShadow_652_1965"/>
<feBlend mode="normal" in="SourceGraphic" in2="effect1_dropShadow_652_1965" result="shape"/>
</filter>
<filter id="filter2_d_652_1965" x="0" y="57.1757" width="138.657" height="41.4111" filterUnits="userSpaceOnUse" color-interpolation-filters="sRGB">
<feFlood flood-opacity="0" result="BackgroundImageFix"/>
<feColorMatrix in="SourceAlpha" type="matrix" values="0 0 0 0 0 0 0 0 0 0 0 0 0 0 0 0 0 0 127 0" result="hardAlpha"/>
<feOffset dx="2" dy="2"/>
<feComposite in2="hardAlpha" operator="out"/>
<feColorMatrix type="matrix" values="0 0 0 0 0.0235294 0 0 0 0 0.0784314 0 0 0 0 0.027451 0 0 0 1 0"/>
<feBlend mode="normal" in2="BackgroundImageFix" result="effect1_dropShadow_652_1965"/>
<feBlend mode="normal" in="SourceGraphic" in2="effect1_dropShadow_652_1965" result="shape"/>
</filter>
</defs>
</svg>
